# xmcd
#
# Track frame offsets: 
#        150
#        17822
#        36508
#        56957
#        76720
#        96918
#        113487
#        146322
#        169148
#        193180
#        211411
#        231182
#        248264
#        270013
#        291402
#        312616
#
# Disc length: 4458 seconds
#
# Revision: 3
# Processed by: cddbd v1.5.1PL2 Copyright (c) Steve Scherf et al.
# Submitted via: ExactAudioCopy v0.95a5
#
DISCID=dd116810
DTITLE=Chris Rea - Golden Collection
DYEAR=1900
DGENRE=
TTITLE0=Josephine
TTITLE1=All Summer Long
TTITLE2=The Road To Hell (Part II)
TTITLE3=You Must Be Evil
TTITLE4=That's What They Always Say
TTITLE5=I Just Wanna Be With You
TTITLE6=Auberge
TTITLE7=Looking For The Summer
TTITLE8=God's Great Banana Skin
TTITLE9=I Ain't The Fool
TTITLE10=Soft Top, Hard Shoulder
TTITLE11=Soup Of The Day
TTITLE12=Between The Devil And The Deep Blue Sea
TTITLE13=As Long As I Have Your Love
TTITLE14=Sweet Summer Day
TTITLE15=The Blue Cafe
EXTD=
EXTT0=
EXTT1=
EXTT2=
EXTT3=
EXTT4=
EXTT5=
EXTT6=
EXTT7=
EXTT8=
EXTT9=
EXTT10=
EXTT11=
EXTT12=
EXTT13=
EXTT14=
EXTT15=
PLAYORDER=
